<?xml version="1.0" encoding="UTF-8" standalone="no"?>
<!DOCTYPE svg PUBLIC "-//W3C//DTD SVG 1.1//EN"
 "http://www.w3.org/Graphics/SVG/1.1/DTD/svg11.dtd">
<!-- Generated by graphviz version 2.47.0 (20210316.0004)
 -->
<!-- Title: dependencies Pages: 1 -->
<svg width="612pt" height="211pt"
 viewBox="0.00 0.00 612.00 211.00" xmlns="http://www.w3.org/2000/svg" xmlns:xlink="http://www.w3.org/1999/xlink">
<g id="graph0" class="graph" transform="scale(1 1) rotate(0) translate(4 207)">
<title>dependencies</title>
<polygon fill="white" stroke="transparent" points="-4,4 -4,-207 608,-207 608,4 -4,4"/>
<text text-anchor="start" x="281.01" y="-42.4" font-family="Times-12" font-weight="bold" font-size="14.00">Legend</text>
<polygon fill="#ffffb3" stroke="transparent" points="68,-10 68,-30 88,-30 88,-10 68,-10"/>
<text text-anchor="start" x="91.63" y="-15.4" font-family="Times-12" font-size="14.00"> &#160;Declarations</text>
<polygon fill="#8dd3c7" stroke="transparent" points="181,-10 181,-30 201,-30 201,-10 181,-10"/>
<text text-anchor="start" x="204.73" y="-15.4" font-family="Times-12" font-size="14.00"> &#160;Module</text>
<polygon fill="#80b1d3" stroke="transparent" points="267,-10 267,-30 287,-30 287,-10 267,-10"/>
<text text-anchor="start" x="290.78" y="-15.4" font-family="Times-12" font-size="14.00"> &#160;Bootstrap</text>
<polygon fill="#fdb462" stroke="transparent" points="364,-10 364,-30 384,-30 384,-10 364,-10"/>
<text text-anchor="start" x="387.67" y="-15.4" font-family="Times-12" font-size="14.00"> &#160;Providers</text>
<polygon fill="#fb8072" stroke="transparent" points="460,-10 460,-30 480,-30 480,-10 460,-10"/>
<text text-anchor="start" x="483.73" y="-15.4" font-family="Times-12" font-size="14.00"> &#160;Exports</text>
<g id="clust1" class="cluster">
<title>cluster_ArticlesModule</title>
<polygon fill="none" stroke="black" stroke-dasharray="1,5" points="8,-70 8,-195 596,-195 596,-70 8,-70"/>
</g>
<g id="clust3" class="cluster">
<title>cluster_ArticlesModule_imports</title>
<polygon fill="none" stroke="black" points="182,-78 182,-130 588,-130 588,-78 182,-78"/>
</g>
<g id="clust6" class="cluster">
<title>cluster_ArticlesModule_providers</title>
<polygon fill="none" stroke="black" points="16,-78 16,-130 174,-130 174,-78 16,-78"/>
</g>
<!-- CategoriesArticlesModule -->
<g id="node1" class="node">
<title>CategoriesArticlesModule</title>
<polygon fill="#8dd3c7" stroke="black" points="579.73,-122 576.73,-126 555.73,-126 552.73,-122 416.27,-122 416.27,-86 579.73,-86 579.73,-122"/>
<text text-anchor="middle" x="498" y="-99.8" font-family="Times,serif" font-size="14.00">CategoriesArticlesModule</text>
</g>
<!-- ArticlesModule -->
<g id="node4" class="node">
<title>ArticlesModule</title>
<polygon fill="#8dd3c7" stroke="black" points="343.86,-187 340.86,-191 319.86,-191 316.86,-187 240.14,-187 240.14,-151 343.86,-151 343.86,-187"/>
<text text-anchor="middle" x="292" y="-164.8" font-family="Times,serif" font-size="14.00">ArticlesModule</text>
</g>
<!-- CategoriesArticlesModule&#45;&gt;ArticlesModule -->
<g id="edge1" class="edge">
<title>CategoriesArticlesModule&#45;&gt;ArticlesModule</title>
<path fill="none" stroke="black" d="M498,-122.11C498,-141.34 498,-169 498,-169 498,-169 353.98,-169 353.98,-169"/>
<polygon fill="black" stroke="black" points="353.98,-165.5 343.98,-169 353.98,-172.5 353.98,-165.5"/>
</g>
<!-- StatutsModule -->
<g id="node2" class="node">
<title>StatutsModule</title>
<polygon fill="#8dd3c7" stroke="black" points="397.66,-122 394.66,-126 373.66,-126 370.66,-122 300.34,-122 300.34,-86 397.66,-86 397.66,-122"/>
<text text-anchor="middle" x="349" y="-99.8" font-family="Times,serif" font-size="14.00">StatutsModule</text>
</g>
<!-- StatutsModule&#45;&gt;ArticlesModule -->
<g id="edge2" class="edge">
<title>StatutsModule&#45;&gt;ArticlesModule</title>
<path fill="none" stroke="black" d="M322.05,-122.11C322.05,-122.11 322.05,-140.99 322.05,-140.99"/>
<polygon fill="black" stroke="black" points="318.55,-140.99 322.05,-150.99 325.55,-140.99 318.55,-140.99"/>
</g>
<!-- UsersModule -->
<g id="node3" class="node">
<title>UsersModule</title>
<polygon fill="#8dd3c7" stroke="black" points="281.92,-122 278.92,-126 257.92,-126 254.92,-122 190.08,-122 190.08,-86 281.92,-86 281.92,-122"/>
<text text-anchor="middle" x="236" y="-99.8" font-family="Times,serif" font-size="14.00">UsersModule</text>
</g>
<!-- UsersModule&#45;&gt;ArticlesModule -->
<g id="edge3" class="edge">
<title>UsersModule&#45;&gt;ArticlesModule</title>
<path fill="none" stroke="black" d="M260.89,-122.11C260.89,-122.11 260.89,-140.99 260.89,-140.99"/>
<polygon fill="black" stroke="black" points="257.39,-140.99 260.89,-150.99 264.39,-140.99 257.39,-140.99"/>
</g>
<!-- ArticlesService -->
<g id="node5" class="node">
<title>ArticlesService</title>
<ellipse fill="#fdb462" stroke="black" cx="95" cy="-104" rx="70.62" ry="18"/>
<text text-anchor="middle" x="95" y="-99.8" font-family="Times,serif" font-size="14.00">ArticlesService</text>
</g>
<!-- ArticlesService&#45;&gt;ArticlesModule -->
<g id="edge4" class="edge">
<title>ArticlesService&#45;&gt;ArticlesModule</title>
<path fill="none" stroke="black" d="M95,-122.11C95,-141.34 95,-169 95,-169 95,-169 229.98,-169 229.98,-169"/>
<polygon fill="black" stroke="black" points="229.98,-172.5 239.98,-169 229.98,-165.5 229.98,-172.5"/>
</g>
</g>
</svg>
