<?xml version="1.0" encoding="UTF-8" standalone="no"?>
<!DOCTYPE svg PUBLIC "-//W3C//DTD SVG 1.1//EN"
 "http://www.w3.org/Graphics/SVG/1.1/DTD/svg11.dtd">
<!-- Generated by graphviz version 2.47.0 (20210316.0004)
 -->
<!-- Title: dependencies Pages: 1 -->
<svg width="626pt" height="298pt"
 viewBox="0.00 0.00 626.00 298.00" xmlns="http://www.w3.org/2000/svg" xmlns:xlink="http://www.w3.org/1999/xlink">
<g id="graph0" class="graph" transform="scale(1 1) rotate(0) translate(4 294)">
<title>dependencies</title>
<polygon fill="white" stroke="transparent" points="-4,4 -4,-294 622,-294 622,4 -4,4"/>
<text text-anchor="start" x="288.01" y="-42.4" font-family="Times-12" font-weight="bold" font-size="14.00">Legend</text>
<polygon fill="#ffffb3" stroke="transparent" points="75,-10 75,-30 95,-30 95,-10 75,-10"/>
<text text-anchor="start" x="98.63" y="-15.4" font-family="Times-12" font-size="14.00"> &#160;Declarations</text>
<polygon fill="#8dd3c7" stroke="transparent" points="188,-10 188,-30 208,-30 208,-10 188,-10"/>
<text text-anchor="start" x="211.73" y="-15.4" font-family="Times-12" font-size="14.00"> &#160;Module</text>
<polygon fill="#80b1d3" stroke="transparent" points="274,-10 274,-30 294,-30 294,-10 274,-10"/>
<text text-anchor="start" x="297.78" y="-15.4" font-family="Times-12" font-size="14.00"> &#160;Bootstrap</text>
<polygon fill="#fdb462" stroke="transparent" points="371,-10 371,-30 391,-30 391,-10 371,-10"/>
<text text-anchor="start" x="394.67" y="-15.4" font-family="Times-12" font-size="14.00"> &#160;Providers</text>
<polygon fill="#fb8072" stroke="transparent" points="467,-10 467,-30 487,-30 487,-10 467,-10"/>
<text text-anchor="start" x="490.73" y="-15.4" font-family="Times-12" font-size="14.00"> &#160;Exports</text>
<g id="clust1" class="cluster">
<title>cluster_AccueilsModule</title>
<polygon fill="none" stroke="black" stroke-dasharray="1,5" points="8,-70 8,-198 188,-198 188,-70 8,-70"/>
</g>
<g id="clust6" class="cluster">
<title>cluster_AccueilsModule_providers</title>
<polygon fill="none" stroke="black" points="16,-78 16,-130 180,-130 180,-78 16,-78"/>
</g>
<g id="clust7" class="cluster">
<title>cluster_AppModule</title>
<polygon fill="none" stroke="black" stroke-dasharray="1,5" points="196,-70 196,-274 328,-274 328,-70 196,-70"/>
</g>
<g id="clust9" class="cluster">
<title>cluster_AppModule_imports</title>
<polygon fill="none" stroke="black" points="212,-78 212,-198 320,-198 320,-78 212,-78"/>
</g>
<g id="clust13" class="cluster">
<title>cluster_AuthModule</title>
<polygon fill="none" stroke="black" stroke-dasharray="1,5" points="336,-214 336,-282 600,-282 600,-214 336,-214"/>
</g>
<g id="clust16" class="cluster">
<title>cluster_AuthModule_exports</title>
<polygon fill="none" stroke="black" points="486,-222 486,-274 592,-274 592,-222 486,-222"/>
</g>
<g id="clust18" class="cluster">
<title>cluster_AuthModule_providers</title>
<polygon fill="none" stroke="black" points="344,-222 344,-274 478,-274 478,-222 344,-222"/>
</g>
<g id="clust19" class="cluster">
<title>cluster_UsersModule</title>
<polygon fill="none" stroke="black" stroke-dasharray="1,5" points="336,-138 336,-206 610,-206 610,-138 336,-138"/>
</g>
<g id="clust22" class="cluster">
<title>cluster_UsersModule_exports</title>
<polygon fill="none" stroke="black" points="492,-146 492,-198 602,-198 602,-146 492,-146"/>
</g>
<g id="clust24" class="cluster">
<title>cluster_UsersModule_providers</title>
<polygon fill="none" stroke="black" points="344,-146 344,-198 484,-198 484,-146 344,-146"/>
</g>
<!-- AccueilsService -->
<g id="node1" class="node">
<title>AccueilsService</title>
<ellipse fill="#fdb462" stroke="black" cx="98" cy="-104" rx="73.55" ry="18"/>
<text text-anchor="middle" x="98" y="-99.8" font-family="Times,serif" font-size="14.00">AccueilsService</text>
</g>
<!-- AccueilsModule -->
<g id="node2" class="node">
<title>AccueilsModule</title>
<polygon fill="#8dd3c7" stroke="black" points="166.03,-190 163.03,-194 142.03,-194 139.03,-190 57.97,-190 57.97,-154 166.03,-154 166.03,-190"/>
<text text-anchor="middle" x="112" y="-167.8" font-family="Times,serif" font-size="14.00">AccueilsModule</text>
</g>
<!-- AccueilsService&#45;&gt;AccueilsModule -->
<g id="edge1" class="edge">
<title>AccueilsService&#45;&gt;AccueilsModule</title>
<path fill="none" stroke="black" d="M112,-121.87C112,-121.87 112,-143.54 112,-143.54"/>
<polygon fill="black" stroke="black" points="108.5,-143.54 112,-153.54 115.5,-143.54 108.5,-143.54"/>
</g>
<!-- AppModule -->
<g id="node5" class="node">
<title>AppModule</title>
<polygon fill="#8dd3c7" stroke="black" points="287.66,-266 284.66,-270 263.66,-270 260.66,-266 204.34,-266 204.34,-230 287.66,-230 287.66,-266"/>
<text text-anchor="middle" x="246" y="-243.8" font-family="Times,serif" font-size="14.00">AppModule</text>
</g>
<!-- AccueilsModule&#45;&gt;AppModule -->
<g id="edge2" class="edge">
<title>AccueilsModule&#45;&gt;AppModule</title>
<path fill="none" stroke="black" d="M166.19,-172C188.64,-172 209.54,-172 209.54,-172 209.54,-172 209.54,-219.99 209.54,-219.99"/>
<polygon fill="black" stroke="black" points="206.04,-219.99 209.54,-229.99 213.04,-219.99 206.04,-219.99"/>
</g>
<!-- AuthModule -->
<g id="node3" class="node">
<title>AuthModule</title>
<polygon fill="#8dd3c7" stroke="black" points="311.55,-190 308.55,-194 287.55,-194 284.55,-190 224.45,-190 224.45,-154 311.55,-154 311.55,-190"/>
<text text-anchor="middle" x="268" y="-167.8" font-family="Times,serif" font-size="14.00">AuthModule</text>
</g>
<!-- AuthModule&#45;&gt;AppModule -->
<g id="edge3" class="edge">
<title>AuthModule&#45;&gt;AppModule</title>
<path fill="none" stroke="black" d="M256.03,-190.01C256.03,-190.01 256.03,-219.85 256.03,-219.85"/>
<polygon fill="black" stroke="black" points="252.53,-219.85 256.03,-229.85 259.53,-219.85 252.53,-219.85"/>
</g>
<!-- AuthService  -->
<g id="node6" class="node">
<title>AuthService </title>
<polygon fill="#fb8072" stroke="black" points="583.98,-266 494.02,-266 494.02,-230 583.98,-230 583.98,-266"/>
<text text-anchor="middle" x="539" y="-243.8" font-family="Times,serif" font-size="14.00">AuthService </text>
</g>
<!-- AuthModule&#45;&gt;AuthService  -->
<g id="edge6" class="edge">
<title>AuthModule&#45;&gt;AuthService </title>
<path fill="none" stroke="black" stroke-dasharray="5,2" d="M295.81,-190.11C295.81,-199.9 295.81,-210 295.81,-210 295.81,-210 542.03,-210 542.03,-210 542.03,-210 542.03,-219.89 542.03,-219.89"/>
<polygon fill="black" stroke="black" points="538.53,-219.89 542.03,-229.89 545.53,-219.89 538.53,-219.89"/>
</g>
<!-- UsersModule -->
<g id="node4" class="node">
<title>UsersModule</title>
<polygon fill="#8dd3c7" stroke="black" points="311.92,-122 308.92,-126 287.92,-126 284.92,-122 220.08,-122 220.08,-86 311.92,-86 311.92,-122"/>
<text text-anchor="middle" x="266" y="-99.8" font-family="Times,serif" font-size="14.00">UsersModule</text>
</g>
<!-- UsersModule&#45;&gt;AuthModule -->
<g id="edge5" class="edge">
<title>UsersModule&#45;&gt;AuthModule</title>
<path fill="none" stroke="black" d="M267.97,-122.22C267.97,-122.22 267.97,-143.73 267.97,-143.73"/>
<polygon fill="black" stroke="black" points="264.47,-143.73 267.97,-153.73 271.47,-143.73 264.47,-143.73"/>
</g>
<!-- UsersModule&#45;&gt;AppModule -->
<g id="edge4" class="edge">
<title>UsersModule&#45;&gt;AppModule</title>
<path fill="none" stroke="black" d="M220,-104C216.87,-104 214.92,-104 214.92,-104 214.92,-104 214.92,-219.76 214.92,-219.76"/>
<polygon fill="black" stroke="black" points="211.42,-219.76 214.92,-229.76 218.42,-219.76 211.42,-219.76"/>
</g>
<!-- UsersService  -->
<g id="node8" class="node">
<title>UsersService </title>
<polygon fill="#fb8072" stroke="black" points="593.85,-190 500.15,-190 500.15,-154 593.85,-154 593.85,-190"/>
<text text-anchor="middle" x="547" y="-167.8" font-family="Times,serif" font-size="14.00">UsersService </text>
</g>
<!-- UsersModule&#45;&gt;UsersService  -->
<g id="edge8" class="edge">
<title>UsersModule&#45;&gt;UsersService </title>
<path fill="none" stroke="black" stroke-dasharray="5,2" d="M311.77,-98C391.4,-98 547,-98 547,-98 547,-98 547,-143.71 547,-143.71"/>
<polygon fill="black" stroke="black" points="543.5,-143.71 547,-153.71 550.5,-143.71 543.5,-143.71"/>
</g>
<!-- AuthService -->
<g id="node7" class="node">
<title>AuthService</title>
<ellipse fill="#fdb462" stroke="black" cx="411" cy="-248" rx="59.11" ry="18"/>
<text text-anchor="middle" x="411" y="-243.8" font-family="Times,serif" font-size="14.00">AuthService</text>
</g>
<!-- AuthService&#45;&gt;AuthModule -->
<g id="edge7" class="edge">
<title>AuthService&#45;&gt;AuthModule</title>
<path fill="none" stroke="black" d="M351.44,-248C326.76,-248 303.79,-248 303.79,-248 303.79,-248 303.79,-200.01 303.79,-200.01"/>
<polygon fill="black" stroke="black" points="307.29,-200.01 303.79,-190.01 300.29,-200.01 307.29,-200.01"/>
</g>
<!-- UsersService -->
<g id="node9" class="node">
<title>UsersService</title>
<ellipse fill="#fdb462" stroke="black" cx="414" cy="-172" rx="61.95" ry="18"/>
<text text-anchor="middle" x="414" y="-167.8" font-family="Times,serif" font-size="14.00">UsersService</text>
</g>
<!-- UsersService&#45;&gt;UsersModule -->
<g id="edge9" class="edge">
<title>UsersService&#45;&gt;UsersModule</title>
<path fill="none" stroke="black" d="M414,-153.73C414,-135.44 414,-110 414,-110 414,-110 322.02,-110 322.02,-110"/>
<polygon fill="black" stroke="black" points="322.02,-106.5 312.02,-110 322.02,-113.5 322.02,-106.5"/>
</g>
</g>
</svg>
